<svg xmlns="http://www.w3.org/2000/svg" version="1.1" xmlns:xlink="http://www.w3.org/1999/xlink" width="512" height="512" x="0" y="0" viewBox="0 0 510.88 510.88" style="enable-background:new 0 0 512 512" xml:space="preserve" class=""><g><path fill="#ffe177" d="M503.38 106.185v305.41c0 13.81-11.2 25-25 25H32.5c-13.8 0-25-11.19-25-25v-357c0-13.81 11.2-25 25-25h145c13.807 0 25 11.193 25 25v16.59c0 5.523 4.477 10 10 10h265.88c13.807 0 25 11.193 25 25z" opacity="1" data-original="#ffe177"></path><path fill="#ffd15b" d="M62.5 436.595h-30c-13.8 0-25-11.19-25-25v-357c0-13.81 11.2-25 25-25h30c-13.8 0-25 11.19-25 25v357c0 13.81 11.2 25 25 25z" opacity="1" data-original="#ffd15b"></path><path fill="#685e68" d="m358.071 469.672-7.148 5.986c-10.654 8.922-26.524 7.519-35.446-3.135l-85.754-102.395 45.729-38.297 85.754 102.395c8.922 10.654 7.518 26.524-3.135 35.446z" opacity="1" data-original="#685e68"></path><path fill="#554e56" d="M359.873 467.659c-10.654 8.922-26.523 7.519-35.446-3.135L236.24 359.225l-9.643 8.076 88.239 105.361c8.922 10.654 24.792 12.057 35.446 3.135l8.263-6.92c.47-.393.914-.804 1.348-1.224z" opacity="1" data-original="#554e56"></path><path fill="#fe646f" d="m190.524 350.513 33.166 36.844a8.38 8.38 0 0 0 11.804 1.044l56.618-47.417a8.378 8.378 0 0 0 1.044-11.803l-33.166-36.844z" opacity="1" data-original="#fe646f"></path><path fill="#fd4755" d="M244.598 380.681a8.583 8.583 0 0 1-12.091-1.069l-33.92-37.682-9.646 8.078 33.974 37.742a8.583 8.583 0 0 0 12.091 1.069l9.935-8.321z" opacity="1" data-original="#fd4755"></path><circle cx="163.004" cy="237.165" r="126.877" fill="#685e68" opacity="1" data-original="#685e68"></circle><circle cx="163.004" cy="237.165" r="93.073" fill="#f5f8f9" opacity="1" data-original="#f5f8f9" class=""></circle><path fill="#e8edf2" d="M178.02 329.035c-31.35 5.1-64.5-5.99-86.37-32.11-33-39.41-27.81-98.11 11.6-131.11 21.58-18.08 48.96-24.7 74.74-20.52-15.96 2.59-31.45 9.38-44.74 20.52-39.41 33-44.6 91.7-11.6 131.11 14.93 17.82 35.1 28.65 56.37 32.11z" opacity="1" data-original="#e8edf2"></path><path fill="#554e56" d="M176.57 363.335c-40.64 4.32-82.63-11.02-110.84-44.71-44.99-53.72-37.91-133.74 15.81-178.73 27.48-23.02 61.85-32.41 94.89-28.9-24.17 2.58-47.85 12.12-67.89 28.9-53.72 44.99-60.8 125.01-15.81 178.73 21.97 26.23 52.3 41.35 83.84 44.71z" opacity="1" data-original="#554e56"></path><path d="M98.07 429.095H32.5c-9.649 0-17.5-7.851-17.5-17.5v-357c0-9.649 7.851-17.5 17.5-17.5h145c9.649 0 17.5 7.851 17.5 17.5v16.59c0 9.649 7.851 17.5 17.5 17.5h200.54c4.142 0 7.5-3.357 7.5-7.5s-3.358-7.5-7.5-7.5H212.5a2.503 2.503 0 0 1-2.5-2.5v-16.59c0-17.921-14.58-32.5-32.5-32.5h-145c-17.92 0-32.5 14.579-32.5 32.5v357c0 17.921 14.58 32.5 32.5 32.5h65.57c4.142 0 7.5-3.357 7.5-7.5s-3.358-7.5-7.5-7.5z" fill="#000000" opacity="1" data-original="#000000" class=""></path><path d="M478.38 73.685h-30.34c-4.142 0-7.5 3.357-7.5 7.5s3.358 7.5 7.5 7.5h30.34c9.649 0 17.5 7.851 17.5 17.5v305.41c0 9.649-7.851 17.5-17.5 17.5H365.906l-68.627-81.935c6.377-5.676 7.144-15.455 1.627-22.043l-18.363-21.925c9.031-16.249 14.629-34.361 16.316-53.435 3.162-35.754-7.788-70.6-30.834-98.117C218.45 94.832 133.53 87.323 76.726 134.896c-27.518 23.046-44.414 55.428-47.576 91.182s7.788 70.6 30.833 98.117c23.046 27.518 55.428 44.414 91.182 47.576 4.039.357 8.064.534 12.071.534 11.716 0 23.253-1.518 34.382-4.475.289.875 20.321 25.094 20.321 25.094a15.775 15.775 0 0 0 10.774 5.622c.478.042.953.063 1.427.063 3.612 0 7.075-1.228 9.914-3.513l28.476 33.998H133.07c-4.142 0-7.5 3.357-7.5 7.5s3.358 7.5 7.5 7.5h148.024l27.636 32.995c5.601 6.687 13.47 10.794 22.159 11.564.984.087 1.966.131 2.942.131 7.644 0 14.976-2.654 20.905-7.621l7.149-5.989c9.359-7.839 13.205-19.851 11.114-31.08h105.38c17.92 0 32.5-14.579 32.5-32.5v-305.41c.001-17.92-14.579-32.499-32.499-32.499zM152.487 356.83c-31.763-2.81-60.53-17.819-81.003-42.266S41.282 259.163 44.091 227.4c2.81-31.764 17.819-60.531 42.266-81.004 22.313-18.687 49.5-27.805 76.55-27.805 34.131 0 68.04 14.525 91.617 42.678 20.474 24.446 30.202 55.402 27.392 87.165-2.809 31.763-17.819 60.53-42.265 81.003-24.445 20.474-55.402 30.207-87.164 27.393zm77.549 26.774a.848.848 0 0 1-.596-.312l-17.037-20.342c13.221-5.238 25.661-12.617 36.88-22.013a135.262 135.262 0 0 0 22.813-24.471l15.31 18.281a.88.88 0 0 1-.109 1.238l-56.619 47.417a.871.871 0 0 1-.642.202zm122.217 80.072-7.149 5.989c-3.613 3.027-8.191 4.46-12.89 4.048a17.553 17.553 0 0 1-11.984-6.254l-68.666-81.982 34.232-28.668 68.663 81.979c6.249 7.47 5.261 18.634-2.206 24.888z" fill="#000000" opacity="1" data-original="#000000" class=""></path><path d="M240.109 173.343c-35.606-42.517-99.164-48.135-141.679-12.53-42.516 35.606-48.137 99.163-12.531 141.679 19.866 23.721 48.429 35.956 77.187 35.956 22.787 0 45.697-7.685 64.492-23.425 42.516-35.607 48.137-99.165 12.531-141.68zm-22.162 130.179c-15.994 13.395-35.483 19.932-54.874 19.931-24.466-.002-48.774-10.412-65.675-30.593-30.295-36.175-25.513-90.252 10.662-120.548 15.994-13.395 35.483-19.932 54.875-19.932 24.466 0 48.773 10.412 65.674 30.593 30.296 36.175 25.513 90.254-10.662 120.549z" fill="#000000" opacity="1" data-original="#000000" class=""></path><path d="M210.438 200.646c-13.258 0-24.043 10.785-24.043 24.043v26.457c0 13.258 10.786 24.043 24.043 24.043s24.043-10.785 24.043-24.043v-26.457c0-13.258-10.785-24.043-24.043-24.043zm9.043 50.5c0 4.986-4.057 9.043-9.043 9.043s-9.043-4.057-9.043-9.043v-26.457c0-4.986 4.057-9.043 9.043-9.043s9.043 4.057 9.043 9.043zM166.07 201.813h-12.228c-4.142 0-7.5 3.357-7.5 7.5s3.358 7.5 7.5 7.5h4.728v49.708c0 4.143 3.358 7.5 7.5 7.5s7.5-3.357 7.5-7.5v-57.208a7.5 7.5 0 0 0-7.5-7.5zM115.57 200.646c-13.257 0-24.043 10.785-24.043 24.043v26.457c0 13.258 10.786 24.043 24.043 24.043 13.258 0 24.043-10.785 24.043-24.043v-26.457c0-13.258-10.785-24.043-24.043-24.043zm9.043 50.5c0 4.986-4.057 9.043-9.043 9.043s-9.043-4.057-9.043-9.043v-26.457c0-4.986 4.057-9.043 9.043-9.043 4.987 0 9.043 4.057 9.043 9.043zM326.651 268.528a7.5 7.5 0 0 0 7.5-7.5v-46.223a7.5 7.5 0 0 0-7.5-7.5h-9.975c-4.142 0-7.5 3.357-7.5 7.5s3.358 7.5 7.5 7.5h2.475v38.723a7.5 7.5 0 0 0 7.5 7.5zM458.115 269.472c11.577 0 20.996-9.36 20.996-20.866v-21.377c0-11.506-9.419-20.866-20.996-20.866s-20.996 9.36-20.996 20.866v21.377c0 11.505 9.419 20.866 20.996 20.866zm-5.996-42.243c0-3.234 2.69-5.866 5.996-5.866s5.996 2.632 5.996 5.866v21.377c0 3.234-2.69 5.866-5.996 5.866s-5.996-2.632-5.996-5.866zM406.643 207.306c-4.142 0-7.5 3.357-7.5 7.5s3.358 7.5 7.5 7.5h2.476v38.723c0 4.143 3.358 7.5 7.5 7.5s7.5-3.357 7.5-7.5v-46.223a7.5 7.5 0 0 0-7.5-7.5zM347.151 227.229v21.377c0 11.506 9.419 20.866 20.996 20.866s20.996-9.36 20.996-20.866v-21.377c0-11.506-9.419-20.866-20.996-20.866s-20.996 9.36-20.996 20.866zm26.992 0v21.377c0 3.234-2.69 5.866-5.996 5.866s-5.996-2.632-5.996-5.866v-21.377c0-3.234 2.69-5.866 5.996-5.866s5.996 2.631 5.996 5.866z" fill="#000000" opacity="1" data-original="#000000" class=""></path></g></svg>