<svg xmlns="http://www.w3.org/2000/svg" version="1.1" xmlns:xlink="http://www.w3.org/1999/xlink" width="512" height="512" x="0" y="0" viewBox="0 0 682.667 682.667" style="enable-background:new 0 0 512 512" xml:space="preserve" class=""><g><defs><clipPath id="a" clipPathUnits="userSpaceOnUse"><path d="M0 512h512V0H0Z" fill="#000000" opacity="1" data-original="#000000"></path></clipPath></defs><g clip-path="url(#a)" transform="matrix(1.33333 0 0 -1.33333 0 682.667)"><path d="M0 0v-444.053c0-14.621 11.853-26.473 26.473-26.473H364.5c14.621 0 26.473 11.852 26.473 26.473v353.777l-116.75 116.75H26.473C11.853 26.474 0 14.621 0 0" style="fill-opacity:1;fill-rule:nonzero;stroke:none" transform="translate(20.819 478.026)" fill="#ebeef2" data-original="#ebeef2" class=""></path><path d="M0 0c14.621 0 26.474 11.853 26.474 26.473V380.25l-91.324 91.323V362.038c0-11.056 8.963-20.018 20.018-20.018h18.603V0z" style="fill-opacity:1;fill-rule:nonzero;stroke:none" transform="translate(385.318 7.5)" fill="#d4d9e0" data-original="#d4d9e0" class=""></path><path d="m0 0 116.75-116.75H20.003C8.955-116.75 0-107.795 0-96.747Z" style="fill-opacity:1;fill-rule:nonzero;stroke:none" transform="translate(295.042 504.5)" fill="#f1f600" data-original="#fd715c" class="" opacity="1"></path><path d="M0 0h151.127" style="stroke-width:15;stroke-linecap:round;stroke-linejoin:round;stroke-miterlimit:10;stroke-dasharray:none;stroke-opacity:1" transform="translate(69.318 437.126)" fill="none" stroke="#000000" stroke-width="15" stroke-linecap="round" stroke-linejoin="round" stroke-miterlimit="10" stroke-dasharray="none" stroke-opacity="" data-original="#000000" class=""></path><path d="M0 0h151.127" style="stroke-width:15;stroke-linecap:round;stroke-linejoin:round;stroke-miterlimit:10;stroke-dasharray:none;stroke-opacity:1" transform="translate(69.318 387.75)" fill="none" stroke="#000000" stroke-width="15" stroke-linecap="round" stroke-linejoin="round" stroke-miterlimit="10" stroke-dasharray="none" stroke-opacity="" data-original="#000000" class=""></path><path d="M0 0h-159.563c-12.224 0-22.133-9.909-22.133-22.133v-210.119c0-12.224 9.909-22.133 22.133-22.133H57.266c12.223 0 22.132 9.909 22.132 22.133v152.853a41.785 41.785 0 0 1-12.239 29.548L29.549-12.24A41.789 41.789 0 0 1 0 0" style="fill-opacity:1;fill-rule:nonzero;stroke:none" transform="translate(411.782 261.898)" fill="#656e87" data-original="#656e87" class=""></path><path d="m0 0-37.61 37.61a41.79 41.79 0 0 1-29.549 12.241h-35.395L-52.703 0a41.788 41.788 0 0 0 12.239-29.549v-174.985h30.57c12.224 0 22.133 9.909 22.133 22.133v152.852A41.788 41.788 0 0 1 0 0" style="fill-opacity:1;fill-rule:nonzero;stroke:none" transform="translate(478.941 212.048)" fill="#474d68" data-original="#474d68" class=""></path><path d="M0 0h179.792v80.693c0 7.562-6.13 13.693-13.691 13.693H13.691C6.13 94.386 0 88.255 0 80.693Z" style="fill-opacity:1;fill-rule:nonzero;stroke:none" transform="translate(270.448 7.514)" fill="#ebeef2" data-original="#ebeef2" class=""></path><path d="M0 0h-39.012v-94.385h52.703v80.694C13.691-6.13 7.562 0 0 0" style="fill-opacity:1;fill-rule:nonzero;stroke:none" transform="translate(436.549 101.898)" fill="#d4d9e0" data-original="#d4d9e0" class=""></path><path d="M0 0h105.754c7.561 0 13.691 6.13 13.691 13.691v34.161c0 7.561-6.13 13.691-13.691 13.691H0c-7.562 0-13.691-6.13-13.691-13.691V13.691C-13.691 6.13-7.562 0 0 0" style="fill-opacity:1;fill-rule:nonzero;stroke:none" transform="translate(284.14 163.435)" fill="#5f9eeb" data-original="#5f9eeb" class=""></path><path d="M0 0h-39.012v-61.543H0c7.562 0 13.691 6.13 13.691 13.691v34.161C13.691-6.13 7.562 0 0 0" style="fill-opacity:1;fill-rule:nonzero;stroke:none" transform="translate(389.894 224.978)" fill="#3b83d1" data-original="#3b83d1" class=""></path><path d="M0 0h128.089" style="stroke-width:15;stroke-linecap:round;stroke-linejoin:round;stroke-miterlimit:10;stroke-dasharray:none;stroke-opacity:1" transform="translate(296.3 69.87)" fill="none" stroke="#000000" stroke-width="15" stroke-linecap="round" stroke-linejoin="round" stroke-miterlimit="10" stroke-dasharray="none" stroke-opacity="" data-original="#000000" class=""></path><path d="M0 0h128.089" style="stroke-width:15;stroke-linecap:round;stroke-linejoin:round;stroke-miterlimit:10;stroke-dasharray:none;stroke-opacity:1" transform="translate(296.3 37.348)" fill="none" stroke="#000000" stroke-width="15" stroke-linecap="round" stroke-linejoin="round" stroke-miterlimit="10" stroke-dasharray="none" stroke-opacity="" data-original="#000000" class=""></path><path d="M0 0h-96.747c-11.048 0-20.003 8.955-20.003 20.003v96.747" style="stroke-width:15;stroke-linecap:round;stroke-linejoin:round;stroke-miterlimit:10;stroke-dasharray:none;stroke-opacity:1" transform="translate(411.792 387.75)" fill="none" stroke="#000000" stroke-width="15" stroke-linecap="round" stroke-linejoin="round" stroke-miterlimit="10" stroke-dasharray="none" stroke-opacity="" data-original="#000000" class=""></path><path d="M0 0h-159.563c-12.224 0-22.133-9.917-22.133-22.151v-210.29c0-12.234 9.909-22.152 22.133-22.152H57.266c12.223 0 22.132 9.917 22.132 22.152v152.977a41.838 41.838 0 0 1-12.239 29.573l-37.61 37.642A41.772 41.772 0 0 1 0 0Z" style="stroke-width:15;stroke-linecap:round;stroke-linejoin:round;stroke-miterlimit:10;stroke-dasharray:none;stroke-opacity:1" transform="translate(411.782 262.106)" fill="none" stroke="#000000" stroke-width="15" stroke-linecap="round" stroke-linejoin="round" stroke-miterlimit="10" stroke-dasharray="none" stroke-opacity="" data-original="#000000" class=""></path><path d="M0 0v80.693c0 7.562-6.13 13.693-13.691 13.693h-152.41c-7.561 0-13.691-6.131-13.691-13.693V0" style="stroke-width:15;stroke-linecap:round;stroke-linejoin:round;stroke-miterlimit:10;stroke-dasharray:none;stroke-opacity:1" transform="translate(450.24 7.514)" fill="none" stroke="#000000" stroke-width="15" stroke-linecap="round" stroke-linejoin="round" stroke-miterlimit="10" stroke-dasharray="none" stroke-opacity="" data-original="#000000" class=""></path><path d="M0 0h105.754c7.561 0 13.691 6.13 13.691 13.691v34.161c0 7.561-6.13 13.691-13.691 13.691H0c-7.562 0-13.691-6.13-13.691-13.691V13.691C-13.691 6.13-7.562 0 0 0Z" style="stroke-width:15;stroke-linecap:round;stroke-linejoin:round;stroke-miterlimit:10;stroke-dasharray:none;stroke-opacity:1" transform="translate(284.14 163.435)" fill="none" stroke="#000000" stroke-width="15" stroke-linecap="round" stroke-linejoin="round" stroke-miterlimit="10" stroke-dasharray="none" stroke-opacity="" data-original="#000000" class=""></path><path d="M0 0v91.208l-116.75 116.75H-364.5c-14.621 0-26.473-11.853-26.473-26.474v-444.052c0-14.621 11.852-26.474 26.473-26.474h147.898" style="stroke-width:15;stroke-linecap:round;stroke-linejoin:round;stroke-miterlimit:10;stroke-dasharray:none;stroke-opacity:1" transform="translate(411.792 296.542)" fill="none" stroke="#000000" stroke-width="15" stroke-linecap="round" stroke-linejoin="round" stroke-miterlimit="10" stroke-dasharray="none" stroke-opacity="" data-original="#000000" class=""></path></g></g></svg>